<svg width="43" height="24" viewBox="0 0 43 24" fill="none" xmlns="http://www.w3.org/2000/svg">
<path d="M21.1765 24C21.6471 24 22.09 23.7509 22.3945 23.391L41.9654 2.46367C42.2422 2.15917 42.4083 1.85467 42.4083 1.43945C42.4083 0.636678 41.7716 0 40.9689 0C40.5813 0 40.1938 0.138408 39.917 0.387543L21.2042 20.4291L2.46367 0.387543C2.21453 0.138408 1.82699 0 1.43945 0C0.608997 0 0 0.636678 0 1.43945C0 1.85467 0.193772 2.18685 0.470588 2.49135L19.9862 23.4187C20.346 23.7785 20.7336 24 21.1765 24Z" fill="white"/>
</svg>
