<svg width="39" height="20" viewBox="0 0 39 20" fill="none" xmlns="http://www.w3.org/2000/svg">
<path d="M38.2346 1.64976C38.2346 0.752523 37.511 0 36.5848 0C35.6876 0 34.9351 0.72358 34.9351 1.64976C34.9351 2.48911 35.5718 3.15481 36.4112 3.24164L28.1334 9.49337L36.6138 15.6004V3.29952C37.511 3.29952 38.2346 2.57594 38.2346 1.64976Z" fill="white"/>
<path d="M10.1301 9.49372L1.82342 3.27094C2.63383 3.18411 3.29952 2.51841 3.29952 1.67906C3.29952 0.78182 2.57594 0.0292969 1.64976 0.0292969C0.72358 0.0292969 0 0.752877 0 1.67906C0 2.5763 0.72358 3.32882 1.64976 3.32882V15.6297L10.1301 9.49372Z" fill="white"/>
<path d="M19.131 15.6287L27.5825 9.4638L19.3047 3.26996C20.1151 3.18313 20.7808 2.51744 20.7808 1.67808C20.7808 0.780844 20.0572 0.0283203 19.131 0.0283203C18.2049 0.0283203 17.4813 0.7519 17.4813 1.67808C17.4813 2.51744 18.118 3.18313 18.9574 3.26996L10.6796 9.4638L19.131 15.6287Z" fill="white"/>
<path d="M18.5823 16.2371L10.4204 10.3037L2.2005 16.2371H18.5823Z" fill="white"/>
<path d="M36.0632 16.2371L27.8434 10.3037L19.6814 16.2371H36.0632Z" fill="white"/>
<path d="M36.5542 17.019H1.64874V20.0002H36.5542V17.019Z" fill="white"/>
</svg>
